<svg width="41" height="40" viewBox="0 0 41 40" fill="none" xmlns="http://www.w3.org/2000/svg">
<g clip-path="url(#clip0_11_483)">
<path d="M20.5 0C9.17185 0 0 8.94815 0 20C0 31.0519 9.17185 40 20.5 40C31.8281 40 41 31.0519 41 20C41 8.94815 31.8281 0 20.5 0ZM30.4919 12.7111C30.3704 14.5481 26.8778 28.2667 26.8778 28.2667C26.8778 28.2667 26.6652 29.0667 25.9059 29.0963C25.6326 29.0963 25.2985 29.0667 24.9037 28.7111C24.1141 28.0593 22.2919 26.7852 20.5911 25.6296C20.0748 26.0444 19.0422 26.9037 18.0096 27.9407C16.5215 29.3926 16.7037 27.9407 16.7037 27.9407L17.1593 23.1704C17.1896 23.1111 17.22 23.0815 17.22 23.0815C17.22 23.0815 26.0578 15.4074 26.3007 14.6074C26.3311 14.5481 26.24 14.5185 26.1489 14.5481C25.5718 14.7852 15.3978 21.037 14.2741 21.7481C14.2133 21.7778 14.0311 21.7481 14.0311 21.7481L9.08074 20.1778C9.08074 20.1778 8.5037 19.9407 8.68593 19.4074C8.7163 19.2889 8.80741 19.2 9.05037 19.0519C10.1437 18.3111 29.3074 11.5852 29.3074 11.5852C29.3074 11.5852 29.8541 11.4074 30.1578 11.5259C30.3096 11.5852 30.4007 11.6444 30.4615 11.8519C30.4919 11.9407 30.4919 12.1185 30.4919 12.2667C30.5222 12.4148 30.4919 12.5333 30.4919 12.7111Z" fill="#696969" fill-opacity="0.8"/>
</g>
<defs>
<clipPath id="clip0_11_483">
<rect width="41" height="40" fill="white"/>
</clipPath>
</defs>
</svg>
