<svg width="40" height="40" viewBox="0 0 40 40" fill="none" xmlns="http://www.w3.org/2000/svg">
<g clip-path="url(#clip0_146_6)">
<path d="M20 0C8.94815 0 0 8.94815 0 20C0 31.0519 8.94815 40 20 40C31.0519 40 40 31.0519 40 20C40 8.94815 31.0519 0 20 0ZM30.9926 17.7185C30.2519 17.7185 29.5111 17.6296 28.8 17.4519C27.5556 17.1556 26.4 16.6519 25.3333 15.9704C25.2741 15.9407 25.2148 15.8519 25.1556 15.8815C25.0667 15.9111 25.1259 16 25.1259 16.0889C25.1259 18.963 25.1259 21.837 25.1259 24.6815C25.1259 26.6963 24.4741 28.4741 23.1704 30.0148C21.7778 31.6444 20 32.5926 17.8667 32.8296C16.237 33.037 14.6667 32.7407 13.1852 32C12.9481 31.8815 12.7111 31.7333 12.5037 31.5852C12.4444 31.5259 12.3556 31.4667 12.2963 31.4074C12.1481 31.3481 12 31.2296 11.8815 31.1111C10.5778 30.0741 9.62963 28.7407 9.12593 27.1407C8.94815 26.5778 8.82963 26.0148 8.77037 25.4222C8.74074 25.0074 8.74074 24.563 8.74074 24.1481C8.8 23.1704 9.03704 22.2519 9.42222 21.363C9.83704 20.4444 10.4 19.6148 11.1407 18.9037C12 18.0741 12.9778 17.4519 14.1037 17.037C14.8148 16.7704 15.5259 16.6222 16.2667 16.563C16.8 16.5333 17.3333 16.5333 17.8667 16.5926C17.9259 16.5926 17.9852 16.6222 17.9852 16.7111C17.9852 17.0074 17.9852 17.3037 17.9852 17.6C17.9852 17.6 18.0148 19.8519 18.0148 20.8889C18.0148 20.9185 18.0148 20.9481 18.0148 21.0074C18.0148 21.1259 17.9556 21.1556 17.8667 21.1259C17.5704 21.037 17.3037 21.0074 17.0074 21.0074C16.563 20.9778 16.1185 21.037 15.6741 21.2148C14.2519 21.7481 13.3926 22.7556 13.2148 24.2667C13.037 25.7481 13.6296 26.9333 14.8444 27.7926C14.9333 27.8519 15.0519 27.9407 15.1407 28C15.1704 28.0296 15.2 28.0296 15.2 28.0593C15.4963 28.1778 15.763 28.2963 16.0889 28.3556C17.0667 28.5333 17.9556 28.3852 18.7852 27.8815C19.763 27.2889 20.3259 26.4 20.5333 25.3037C20.563 25.0963 20.563 24.8889 20.563 24.6519C20.563 18.9037 20.563 13.1259 20.563 7.37778C20.563 7.11111 20.5333 7.14074 20.8 7.14074C22.1333 7.14074 23.4667 7.14074 24.7704 7.14074C24.8 7.14074 24.8296 7.14074 24.8593 7.14074C25.0074 7.14074 25.0074 7.14074 25.0074 7.28889C25.0074 7.58519 25.1259 8.32593 25.1556 8.38519C25.7778 11.2593 29.1556 13.037 30.2222 13.1852C30.5185 13.2148 30.8148 13.2741 31.0815 13.2741C31.2 13.2741 31.2 13.2741 31.2 13.3926C31.2 13.6593 31.2593 16.4444 31.2593 17.4815C31.2593 17.6889 31.2296 17.7185 30.9926 17.7185Z" fill="black" fill-opacity="0.4"/>
</g>
<g clip-path="url(#clip1_146_6)">
<path d="M20 0C8.94815 0 0 8.94815 0 20C0 31.0519 8.94815 40 20 40C31.0519 40 40 31.0519 40 20C40 8.94815 31.0519 0 20 0ZM30.9926 17.7185C30.2519 17.7185 29.5111 17.6296 28.8 17.4519C27.5556 17.1556 26.4 16.6519 25.3333 15.9704C25.2741 15.9407 25.2148 15.8519 25.1556 15.8815C25.0667 15.9111 25.1259 16 25.1259 16.0889C25.1259 18.963 25.1259 21.837 25.1259 24.6815C25.1259 26.6963 24.4741 28.4741 23.1704 30.0148C21.7778 31.6444 20 32.5926 17.8667 32.8296C16.237 33.037 14.6667 32.7407 13.1852 32C12.9481 31.8815 12.7111 31.7333 12.5037 31.5852C12.4444 31.5259 12.3556 31.4667 12.2963 31.4074C12.1481 31.3481 12 31.2296 11.8815 31.1111C10.5778 30.0741 9.62963 28.7407 9.12593 27.1407C8.94815 26.5778 8.82963 26.0148 8.77037 25.4222C8.74074 25.0074 8.74074 24.563 8.74074 24.1481C8.8 23.1704 9.03704 22.2519 9.42222 21.363C9.83704 20.4444 10.4 19.6148 11.1407 18.9037C12 18.0741 12.9778 17.4519 14.1037 17.037C14.8148 16.7704 15.5259 16.6222 16.2667 16.563C16.8 16.5333 17.3333 16.5333 17.8667 16.5926C17.9259 16.5926 17.9852 16.6222 17.9852 16.7111C17.9852 17.0074 17.9852 17.3037 17.9852 17.6C17.9852 17.6 18.0148 19.8519 18.0148 20.8889C18.0148 20.9185 18.0148 20.9481 18.0148 21.0074C18.0148 21.1259 17.9556 21.1556 17.8667 21.1259C17.5704 21.037 17.3037 21.0074 17.0074 21.0074C16.563 20.9778 16.1185 21.037 15.6741 21.2148C14.2519 21.7481 13.3926 22.7556 13.2148 24.2667C13.037 25.7481 13.6296 26.9333 14.8444 27.7926C14.9333 27.8519 15.0519 27.9407 15.1407 28C15.1704 28.0296 15.2 28.0296 15.2 28.0593C15.4963 28.1778 15.763 28.2963 16.0889 28.3556C17.0667 28.5333 17.9556 28.3852 18.7852 27.8815C19.763 27.2889 20.3259 26.4 20.5333 25.3037C20.563 25.0963 20.563 24.8889 20.563 24.6519C20.563 18.9037 20.563 13.1259 20.563 7.37778C20.563 7.11111 20.5333 7.14074 20.8 7.14074C22.1333 7.14074 23.4667 7.14074 24.7704 7.14074C24.8 7.14074 24.8296 7.14074 24.8593 7.14074C25.0074 7.14074 25.0074 7.14074 25.0074 7.28889C25.0074 7.58519 25.1259 8.32593 25.1556 8.38519C25.7778 11.2593 29.1556 13.037 30.2222 13.1852C30.5185 13.2148 30.8148 13.2741 31.0815 13.2741C31.2 13.2741 31.2 13.2741 31.2 13.3926C31.2 13.6593 31.2593 16.4444 31.2593 17.4815C31.2593 17.6889 31.2296 17.7185 30.9926 17.7185Z" fill="#696969" fill-opacity="0.8"/>
</g>
<defs>
<clipPath id="clip0_146_6">
<rect width="40" height="40" fill="white"/>
</clipPath>
<clipPath id="clip1_146_6">
<rect width="40" height="40" fill="white"/>
</clipPath>
</defs>
</svg>
