<svg width="40" height="40" viewBox="0 0 40 40" fill="none" xmlns="http://www.w3.org/2000/svg">
<g clip-path="url(#clip0_11_489)">
<path fill-rule="evenodd" clip-rule="evenodd" d="M20 0C8.94815 0 0 8.94815 0 20C0 31.0519 8.94815 40 20 40C31.0519 40 40 31.0519 40 20C40 8.94815 31.0519 0 20 0ZM31.0519 15.7333C31.0519 15.9704 31.0815 16.1778 31.0815 16.4148C31.0815 23.437 25.7481 31.5259 15.9704 31.5259C12.9778 31.5259 10.1926 30.637 7.82222 29.1259C8.23704 29.1852 8.65185 29.1852 9.0963 29.1852C11.5852 29.1852 13.8667 28.3259 15.7037 26.9037C13.3926 26.8741 11.4074 25.3333 10.7556 23.2296C11.0815 23.2889 11.4074 23.3185 11.763 23.3185C12.237 23.3185 12.7111 23.2593 13.1556 23.1407C10.7259 22.6667 8.88889 20.5037 8.88889 17.9259C8.88889 17.8963 8.88889 17.8667 8.88889 17.8667C9.6 18.2519 10.4296 18.5185 11.2889 18.5185C9.86667 17.5704 8.91852 15.9407 8.91852 14.1037C8.91852 13.1259 9.18519 12.2074 9.62963 11.437C12.237 14.637 16.1481 16.7704 20.563 16.9778C20.4741 16.5926 20.4148 16.1778 20.4148 15.763C20.4148 12.8296 22.7852 10.4593 25.7185 10.4593C27.2593 10.4593 28.6222 11.1111 29.6 12.1481C30.8148 11.9111 31.9407 11.4667 32.9778 10.8444C32.5926 12.0889 31.7333 13.1259 30.637 13.7778C31.7037 13.6593 32.7407 13.363 33.6889 12.9481C32.9778 14.0444 32.0889 14.963 31.0519 15.7333Z" fill="#696969" fill-opacity="0.8"/>
</g>
<defs>
<clipPath id="clip0_11_489">
<rect width="40" height="40" fill="white"/>
</clipPath>
</defs>
</svg>
