<svg width="33" height="52" viewBox="0 0 33 52" fill="none" xmlns="http://www.w3.org/2000/svg">
<path d="M1 0C0.447715 0 0 0.447715 0 1C0 1.55228 0.447715 2 1 2V0ZM25.5 1H26.5C26.5 0.447715 26.0523 0 25.5 0V1ZM24.7929 51.7071C25.1834 52.0976 25.8166 52.0976 26.2071 51.7071L32.5711 45.3431C32.9616 44.9526 32.9616 44.3195 32.5711 43.9289C32.1805 43.5384 31.5474 43.5384 31.1569 43.9289L25.5 49.5858L19.8431 43.9289C19.4526 43.5384 18.8195 43.5384 18.4289 43.9289C18.0384 44.3195 18.0384 44.9526 18.4289 45.3431L24.7929 51.7071ZM1 2H25.5V0H1V2ZM24.5 1V51H26.5V1H24.5Z" fill="#E6E6E6"/>
</svg>
